<svg viewBox="0 0 1024 1024">
<path fill="#000000" opacity="1.000000" stroke="none" 
	d="
M283.212952,431.585754 
	C289.502136,432.351471 295.099976,433.945648 300.064331,437.180145 
	C309.516815,443.338837 312.877441,453.029419 309.762848,464.634735 
	C308.190430,470.493835 305.380829,475.766663 302.057465,480.798462 
	C301.162903,482.152863 299.828094,483.299866 299.760895,485.168610 
	C300.119171,485.504120 300.416290,485.991394 300.835663,486.144958 
	C319.238586,492.884705 325.192596,511.851440 320.552368,530.462830 
	C313.639435,558.189880 287.424896,580.556580 258.659821,583.343933 
	C256.344910,583.568237 254.048706,583.986450 251.733566,584.206970 
	C250.139725,584.358887 248.580139,583.990723 248.213760,582.181580 
	C247.767929,579.980103 249.455383,579.236328 251.143555,578.921692 
	C255.558273,578.098877 260.066772,577.698914 264.421448,576.647827 
	C286.449097,571.331360 303.001923,559.039490 312.367554,538.034729 
	C316.681244,528.360046 318.207550,518.296143 315.140991,507.855927 
	C313.631104,502.715454 310.756104,498.506134 306.574066,495.264465 
	C298.968536,489.369202 295.127747,489.593567 288.021667,495.945190 
	C278.136292,504.781158 267.304962,512.147644 254.814072,516.823181 
	C252.735855,517.601074 251.606445,518.592712 251.175476,520.931458 
	C247.018921,543.488037 242.702988,566.015198 238.512070,588.565552 
	C238.138153,590.577515 237.839066,592.413086 240.517700,593.954102 
	C244.183578,596.062988 241.031265,598.956787 240.109741,601.332825 
	C239.196823,603.686584 237.731796,606.109314 234.615753,605.321594 
	C231.709518,604.586792 231.715424,601.837402 231.880234,599.557434 
	C232.828888,586.434082 235.555481,573.570374 237.905594,560.661499 
	C240.197586,548.071899 243.274200,535.613403 245.233383,522.977417 
	C249.373337,496.276245 256.792572,470.265472 261.428864,443.679749 
	C261.678619,442.247559 261.824219,440.797211 262.032837,439.247375 
	C242.027802,443.698853 230.753220,459.160614 233.519623,478.757782 
	C233.681274,479.902985 234.038055,481.055542 233.978989,482.187683 
	C233.913010,483.452301 233.067719,484.424377 231.729507,484.434845 
	C229.892838,484.449158 229.186615,483.036224 228.809570,481.526825 
	C226.762634,473.332458 227.397110,465.280518 230.702362,457.559448 
	C236.008133,445.165039 246.190720,438.354767 258.434052,434.098175 
	C260.645386,433.329346 262.935516,432.896454 264.134613,430.501099 
	C264.584167,429.603119 265.869995,428.605591 266.549103,429.198456 
	C271.509155,433.528748 277.589935,429.387817 283.212952,431.585754 
M267.237823,441.734711 
	C263.655029,459.350433 260.072235,476.966125 256.250183,495.758209 
	C265.176941,489.315918 274.099426,485.026306 283.820618,485.158386 
	C291.980347,485.269226 295.969818,481.287384 299.302521,475.155518 
	C301.764709,470.625427 304.047119,466.043854 305.086853,460.903595 
	C306.645752,453.196472 304.264038,446.668945 297.747498,442.255859 
	C289.778870,436.859375 280.838318,435.840729 271.515900,436.853058 
	C269.077240,437.117920 267.483032,438.283234 267.237823,441.734711 
M258.357361,509.705200 
	C268.251007,504.633911 277.521637,498.676422 286.108063,490.760956 
	C271.263062,489.699341 252.988983,501.541931 253.993393,511.075043 
	C255.436554,511.427734 256.512604,510.494720 258.357361,509.705200 
z"/>
<path fill="#000000" opacity="1.000000" stroke="none" 
	d="
M656.874756,538.912842 
	C664.342834,533.102417 669.833374,525.990112 675.075500,518.659546 
	C676.326477,516.910095 677.467651,514.407593 680.069885,516.066895 
	C682.294312,517.485291 680.887756,519.606140 680.046936,521.416260 
	C678.339844,525.091431 677.502686,528.848450 678.880798,533.192627 
	C683.455566,531.210754 685.124512,526.987061 687.870361,523.810974 
	C689.332275,522.120178 690.354553,519.231873 693.201660,520.216064 
	C696.344910,521.302612 695.469604,524.433594 695.177612,526.741760 
	C694.602600,531.286682 693.562317,535.773193 694.892517,540.545593 
	C698.617065,539.886108 700.410156,537.324890 702.377625,535.218994 
	C711.840576,525.090149 718.437622,513.775757 721.036560,499.651794 
	C724.371460,481.527985 728.557190,463.459503 735.881409,446.362610 
	C737.195679,443.294647 738.603882,440.266968 740.887878,437.769257 
	C742.041199,436.508026 743.386292,435.395386 745.244141,435.956848 
	C747.268555,436.568604 748.070251,438.313843 748.146484,440.203461 
	C748.219177,442.004730 747.995178,443.857819 747.626038,445.630737 
	C745.141785,457.563751 739.354126,468.069855 733.246277,478.416504 
	C731.459106,481.443909 729.856079,484.477203 729.056580,487.959167 
	C722.319397,517.299683 715.174988,546.551208 709.949158,576.218323 
	C709.374023,579.483582 708.592651,582.739258 709.943787,586.054626 
	C710.548523,587.538391 709.876282,589.040405 709.106079,590.336731 
	C708.157043,591.933716 707.022278,593.575989 704.801331,592.961853 
	C702.770630,592.400330 702.681946,590.567261 702.767822,588.875671 
	C703.148804,581.369385 704.770203,574.039917 706.184387,566.696106 
	C708.441895,554.973083 710.953979,543.299133 713.475647,531.034302 
	C709.189453,535.280518 706.249573,539.974487 701.876648,543.324585 
	C698.990967,545.535278 695.930298,547.615662 692.315369,545.816589 
	C688.880066,544.106934 688.791016,540.462769 688.729004,537.072571 
	C688.708069,535.927490 688.725708,534.781677 688.725708,532.771118 
	C685.173279,535.096741 683.155090,538.860718 679.297974,538.945435 
	C674.601868,539.048706 673.664734,535.065063 672.424683,531.475342 
	C668.310425,535.388611 664.546265,539.373840 660.367065,542.861694 
	C650.878357,550.780579 644.984558,549.646790 638.679871,538.576416 
	C635.326172,543.320801 632.165710,547.913757 628.872986,552.409851 
	C626.400452,555.786011 623.555969,558.873169 619.908203,560.995850 
	C615.842346,563.361877 612.896851,562.075256 611.562012,557.517212 
	C610.191345,552.836975 611.389648,548.200562 612.335815,543.694458 
	C614.100830,535.289001 616.344360,526.983948 618.474670,518.286499 
	C615.613281,519.428345 613.106079,520.667480 610.462341,521.438782 
	C602.700684,523.703064 595.702087,517.658875 597.133240,509.734833 
	C598.424561,502.585327 602.245422,496.773651 608.075867,492.398834 
	C609.827026,491.084869 611.893188,489.960358 614.055969,491.447723 
	C616.276794,492.975037 616.445190,495.348877 615.869019,497.746155 
	C614.690430,502.650635 612.272461,507.045197 610.066711,511.527802 
	C609.363892,512.956055 608.034973,514.165649 608.294922,516.278503 
	C611.696106,516.134766 614.061462,513.886719 616.812744,512.519165 
	C619.204468,511.330261 621.501526,508.361420 624.439514,510.614105 
	C627.375854,512.865540 625.349731,515.843628 624.540955,518.423218 
	C621.402954,528.431152 618.303894,538.440430 616.826416,548.869507 
	C616.500305,551.171387 615.916260,553.454895 617.495667,555.869751 
	C620.266418,555.198547 621.840698,553.017090 623.377441,550.975464 
	C631.412537,540.300537 638.801636,529.283936 642.668823,516.247986 
	C644.479553,510.144226 647.302307,504.426208 652.024475,499.949707 
	C654.236267,497.852905 656.954407,495.759644 659.930969,498.251862 
	C662.579651,500.469604 661.444275,503.473022 660.081665,506.035767 
	C657.549133,510.798859 653.673401,514.518799 650.077209,518.447937 
	C646.461060,522.398926 644.315613,526.990173 644.313599,532.410095 
	C644.312378,535.852234 643.623047,539.793518 647.504150,541.698914 
	C651.046082,543.437866 653.849976,541.050171 656.874756,538.912842 
M606.502075,501.376312 
	C604.227295,504.703339 602.132629,508.087891 602.708252,513.486511 
	C605.810669,508.461853 608.177979,504.305145 608.689697,499.255341 
	C608.107605,499.812439 607.525452,500.369537 606.502075,501.376312 
z"/>
<path fill="#000000" opacity="1.000000" stroke="none" 
	d="
M437.518005,529.516602 
	C437.885193,530.419312 438.174225,530.983582 438.817749,532.239746 
	C441.049988,527.766907 442.977142,523.802856 445.002930,519.889954 
	C445.996063,517.971741 447.094940,516.096863 448.289185,514.297363 
	C449.331268,512.727112 450.691589,511.357361 452.820618,511.944305 
	C454.999847,512.545044 455.360535,514.426147 455.302185,516.331238 
	C455.214569,519.193970 455.661835,521.964966 456.371307,524.716309 
	C457.359222,528.547302 459.652924,529.490112 463.112579,527.741638 
	C467.510925,525.518738 470.732361,521.882935 474.177063,518.503235 
	C475.504333,517.201050 476.835571,514.740234 479.070465,516.586853 
	C481.576599,518.657593 479.412872,520.538147 477.967194,522.009766 
	C474.125854,525.920166 470.445282,530.081848 465.356689,532.477905 
	C458.494781,535.708923 453.812103,533.636108 451.469116,526.405029 
	C451.063690,525.153748 450.758972,523.869812 450.234344,521.974670 
	C447.770081,526.596313 445.611938,530.807068 443.292999,534.927307 
	C442.045349,537.144104 440.387604,539.340454 437.500458,538.897583 
	C434.637970,538.458435 433.714874,535.820129 433.000732,533.417786 
	C432.115356,530.439514 431.772858,527.341064 432.070984,523.156921 
	C427.291870,529.503296 424.072449,535.460266 420.876953,541.434326 
	C420.013275,543.048828 419.121094,544.651611 418.161530,546.210327 
	C417.203094,547.767151 415.826263,548.659851 413.959198,547.989990 
	C412.293030,547.392212 411.895386,545.854797 411.937103,544.318481 
	C411.986267,542.510193 412.295105,540.708984 412.549316,538.371521 
	C407.805450,541.406616 403.922333,547.618408 397.562317,543.124023 
	C392.369537,539.454407 392.568298,532.883850 390.576996,527.407166 
	C383.935730,530.046753 383.113892,542.489807 372.076263,537.996399 
	C368.816193,542.635315 365.443665,547.542114 361.952606,552.363098 
	C359.697845,555.476746 357.090759,558.326721 353.877930,560.464111 
	C349.011383,563.701660 345.538879,562.280823 344.543915,556.523560 
	C343.531952,550.668030 344.988678,544.941528 346.313202,539.296631 
	C347.932678,532.394836 349.872620,525.568298 351.833252,518.102783 
	C348.798767,519.401184 346.468536,520.613708 344.004181,521.412354 
	C336.627075,523.803040 329.729065,518.739380 330.369781,511.095764 
	C331.028351,503.239075 334.873077,496.902496 341.306458,492.279633 
	C343.078491,491.006287 345.132782,489.938263 347.281067,491.557983 
	C349.456390,493.198029 349.506805,495.516266 348.894165,497.905121 
	C347.600403,502.950012 344.995850,507.443573 342.842255,512.126465 
	C342.315033,513.272827 341.255768,514.260864 341.657623,516.004089 
	C345.506531,515.952454 348.063873,513.363831 351.074005,511.804260 
	C353.189911,510.708008 355.348633,508.570953 357.873810,510.757141 
	C360.116791,512.698914 358.826141,515.075134 358.149811,517.257751 
	C354.850586,527.905090 351.482208,538.532043 349.784180,549.593872 
	C349.461304,551.697327 348.801086,553.806335 350.079895,555.878235 
	C352.587158,556.242065 353.670074,554.372192 354.873474,552.881409 
	C362.965637,542.856995 369.915405,532.119141 374.976074,520.226685 
	C376.886841,515.736450 379.284393,511.544037 382.904938,508.227020 
	C387.631226,503.897003 393.687378,504.261169 397.462921,508.919067 
	C398.336609,509.997009 399.169739,511.149536 398.238342,512.504028 
	C397.152679,514.082825 395.743073,513.652710 394.272827,512.918274 
	C388.679352,510.124115 386.846313,510.617004 383.340240,515.728088 
	C380.973938,519.177612 378.311340,527.175598 378.024872,532.151550 
	C382.180908,528.808960 384.651337,524.539490 387.746918,520.823364 
	C389.377014,518.866577 390.399811,515.339172 393.548248,516.157471 
	C396.777191,516.996704 395.730347,520.558777 396.145905,523.060425 
	C396.717987,526.504700 396.923798,530.035767 397.792084,533.399231 
	C399.421173,539.709473 402.876984,540.612915 407.147705,535.717041 
	C412.659973,529.397949 416.713715,522.119690 419.798798,514.317200 
	C420.472046,512.614502 420.952911,510.811920 421.817322,509.214966 
	C422.817627,507.366943 423.128082,503.918457 426.421875,505.447510 
	C429.149933,506.713959 427.609741,509.222473 426.826538,511.154144 
	C424.330017,517.311523 422.163696,523.571472 420.122375,531.282043 
	C424.168060,525.193420 427.502106,520.180603 430.830505,515.164001 
	C431.882080,513.579102 433.062164,512.063904 435.237030,512.648071 
	C437.611420,513.285889 437.278137,515.400635 437.314728,517.187866 
	C437.396637,521.183777 437.402832,525.181274 437.518005,529.516602 
M341.621826,502.503998 
	C341.753967,501.443024 343.052765,500.584015 341.954559,498.964111 
	C338.457062,502.678253 335.713348,506.471619 336.124817,513.323730 
	C338.279785,509.114319 339.813568,506.118317 341.621826,502.503998 
z"/>
<path fill="#000000" opacity="1.000000" stroke="none" 
	d="
M554.289124,455.139313 
	C549.028931,476.998932 543.831665,498.446564 538.443237,520.682861 
	C549.925171,518.792969 558.832520,513.904297 566.983826,507.488922 
	C582.843872,495.006653 593.339111,478.557617 601.455078,460.386841 
	C605.605530,451.094666 608.964111,441.523682 611.563660,431.685028 
	C611.818787,430.719604 612.054626,429.743774 612.393860,428.806946 
	C613.061646,426.962921 613.557434,424.364319 616.228882,425.352448 
	C618.604980,426.231293 617.950195,428.610901 617.384583,430.587708 
	C616.697510,432.988861 616.038208,435.398407 615.316040,437.788940 
	C607.712830,462.959259 596.901062,486.308136 577.817261,505.126770 
	C567.871216,514.934631 556.249023,521.718933 543.103455,525.555847 
	C542.403137,527.167908 543.267517,528.081726 543.929810,528.995056 
	C551.767578,539.803650 558.211365,551.484314 565.166138,562.845886 
	C569.346619,569.675232 573.763916,576.370544 579.531616,581.980591 
	C584.988892,587.288818 591.014465,590.671326 598.715576,586.043884 
	C600.357422,585.057312 602.417297,584.645081 603.414734,586.899841 
	C604.277527,588.850037 602.621704,589.853760 601.205017,590.815979 
	C595.356628,594.788330 587.295959,594.361572 580.611511,589.561951 
	C574.431824,585.124878 569.595215,579.376465 565.548889,573.027771 
	C558.926392,562.637085 552.572815,552.075256 546.061401,541.613281 
	C543.522705,537.534302 541.043579,533.398010 537.734619,529.933594 
	C535.728088,530.304993 535.958130,532.003174 535.706421,533.099731 
	C531.837891,549.955444 527.565796,566.725281 524.789185,583.818237 
	C524.422180,586.077393 524.077148,587.762634 526.790894,589.112427 
	C529.609131,590.514221 527.722290,592.951904 526.825928,594.747009 
	C525.469910,597.462769 524.530884,601.768677 520.682434,600.817017 
	C516.406372,599.759644 517.715454,595.459595 518.135559,592.269409 
	C520.441223,574.759705 524.612915,557.617676 528.439697,540.405457 
	C529.364990,536.243713 530.938660,532.165771 530.866577,527.826660 
	C528.587097,526.520630 526.190674,526.629578 523.944092,526.125854 
	C521.298218,525.532532 518.855957,524.421692 516.844971,522.621094 
	C514.963684,520.936584 513.072388,518.945557 514.267151,516.152100 
	C515.476990,513.323364 518.134888,512.614014 520.956848,512.866760 
	C525.327881,513.258240 529.189697,515.264709 533.681030,517.684998 
	C535.057861,512.133728 536.349792,507.060486 537.572388,501.970612 
	C542.040466,483.369781 546.484070,464.763123 550.942993,446.160095 
	C551.214294,445.028168 551.489807,443.892914 551.851440,442.788025 
	C552.309753,441.387665 553.230225,440.435120 554.811035,440.713470 
	C556.649841,441.037323 557.301086,442.455139 556.962036,444.067444 
	C556.209595,447.645477 555.235657,451.176910 554.289124,455.139313 
z"/>
<path fill="#000000" opacity="1.000000" stroke="none" 
	d="
M733.608154,510.741150 
	C735.885437,506.037262 738.039124,501.663757 742.166443,498.802704 
	C744.244324,497.362274 746.617371,496.069824 748.988037,498.206024 
	C751.068726,500.080994 750.531250,502.457336 749.568359,504.668793 
	C747.119507,510.292877 742.980652,514.647888 738.547058,518.702209 
	C733.952759,522.903503 731.368896,533.416443 733.853333,538.966492 
	C735.118896,541.793762 737.231567,542.870422 740.348877,541.968811 
	C743.018555,541.196533 745.117493,539.548767 747.060059,537.755188 
	C755.640503,529.832642 764.231384,521.913818 766.929321,509.759918 
	C767.357544,507.830750 767.871521,504.796783 770.916565,505.885803 
	C773.706604,506.883606 772.401062,509.512482 771.949524,511.548645 
	C771.454712,513.779907 770.309387,515.878479 771.502502,519.156799 
	C771.828979,518.395447 771.962158,517.433167 772.512024,516.904053 
	C777.602173,512.006042 782.075806,512.890869 784.864746,519.430237 
	C786.298584,522.792053 787.224487,526.372498 788.690796,529.717896 
	C790.483948,533.808838 792.229004,534.092468 795.315979,530.893677 
	C798.573425,527.518188 800.837524,523.398132 803.411011,519.512207 
	C804.555908,517.783569 805.614014,515.096191 808.311768,516.851990 
	C810.617615,518.352661 809.082947,520.416565 808.056213,522.105347 
	C805.116638,526.940186 802.350464,531.917664 798.068726,535.763428 
	C792.858704,540.442932 788.102173,539.702271 784.672546,533.518555 
	C783.392517,531.210510 782.690491,528.588013 781.632202,526.149048 
	C780.669434,523.929993 780.461914,521.277039 778.187927,519.709290 
	C775.740967,520.334167 774.812317,522.365479 773.707642,524.179016 
	C769.970886,530.313843 766.990662,536.811462 764.429688,543.516235 
	C763.684998,545.465820 763.135986,548.253174 760.270081,547.507874 
	C757.097656,546.682922 758.231812,543.941528 758.462524,541.646484 
	C758.704102,539.243713 759.957214,536.937988 759.373047,533.969299 
	C755.205994,537.609924 751.457397,541.083008 747.493958,544.290588 
	C743.717224,547.346985 739.426880,549.285645 734.566833,547.052185 
	C729.366821,544.662476 727.863708,539.923706 727.723816,534.665222 
	C727.501404,526.306885 730.280701,518.642212 733.608154,510.741150 
z"/>
</svg>